<?xml version="1.0" encoding="iso-8859-1"?>
<!-- Generator: Adobe Illustrator 19.0.0, SVG Export Plug-In . SVG Version: 6.00 Build 0)  -->
<svg version="1.1" id="Layer_1" xmlns="http://www.w3.org/2000/svg" xmlns:xlink="http://www.w3.org/1999/xlink" x="0px" y="0px"
	 viewBox="0 0 512.002 512.002" style="enable-background:new 0 0 512.002 512.002;" xml:space="preserve">
<g>
	<g>
		<path d="M433.134,297.372c-21.066,0-38.143,17.077-38.143,38.143c0,21.066,17.077,38.143,38.143,38.143
			c21.066,0,38.143-17.077,38.143-38.143S454.2,297.372,433.134,297.372z M433.133,350.966c-8.532,0-15.45-6.918-15.45-15.45
			c0-8.532,6.918-15.45,15.45-15.45c8.534,0,15.45,6.918,15.45,15.45C448.584,344.048,441.667,350.966,433.133,350.966z"/>
	</g>
</g>
<g>
	<g>
		<path d="M220.254,297.372c-21.066,0-38.143,17.077-38.143,38.143c0,21.066,17.077,38.143,38.143,38.143
			s38.143-17.077,38.143-38.143S241.32,297.372,220.254,297.372z M220.254,350.966c-8.532,0-15.45-6.918-15.45-15.45
			c0-8.532,6.918-15.45,15.45-15.45s15.45,6.918,15.45,15.45C235.704,344.048,228.787,350.966,220.254,350.966z"/>
	</g>
</g>
<g>
	<g>
		<path d="M163.018,256.557c-0.794-5.902-6.217-10.036-12.119-9.251l-36.96,4.964L85.123,219.42l27.85,16.16l4.11-0.552l0.026-0.097
			c2.313-8.571-2.761-17.393-11.331-19.706l-27.675-7.467c-8.571-2.313-17.394,2.761-19.706,11.333
			c-0.999,3.702-14.25,54.094-19.173,72.816c-1.195,4.545-1.239,9.339-0.104,13.898c1.939,7.797,5.504,22.014,10.639,41.985
			l-36.753-0.192c-0.022,0-0.047,0-0.069,0c-7.114,0-12.898,5.748-12.935,12.87c-0.038,7.144,5.723,13.154,12.868,13.191h53.559
			c0.022,0,0.046,0,0.068,0c8.765,0,14.59-8.112,12.523-16.088l-12.228-47.195l37.023,5.426l7.34,47.01
			c1.104,7.071,7.731,11.887,14.777,10.785c7.06-1.102,11.889-7.719,10.786-14.777l-8.81-56.434
			c-0.875-5.602-5.296-9.982-10.906-10.804l-4.095-0.6l-6.438,0.865c-7.309,0.982-14.561-3.078-17.46-10.023l-20.092-48.188
			l32.626,37.196c0.04,0.045,0.084,0.083,0.124,0.128c2.436,2.684,5.973,3.906,9.415,3.448l42.688-5.732
			C159.669,267.884,163.81,262.458,163.018,256.557z"/>
	</g>
</g>
<g>
	<g>
		<circle cx="104.016" cy="177.861" r="23.795"/>
	</g>
</g>
<g>
	<g>
		<path d="M493.826,155.222c-2.164-9.836-11.044-16.975-21.115-16.975H318.495c-7.818,0-15.046,4.237-18.864,11.057l-40.775,72.814
			l-58.266-62.456c-4.832-5.179-12.945-5.462-18.126-0.629c-5.18,4.832-5.46,12.946-0.629,18.125l54.418,58.331h-49.008
			c-5.157,0-10.077,1.002-14.592,2.802c4.493,5.218,7.241,11.965,7.241,19.26c0,17.199-15.216,31.311-32.595,29.578
			c-9.446,3.573-16.171,12.683-16.171,23.38c0,13.812,11.196,25.007,25.007,25.007h6.213c0-31.931,25.977-57.908,57.908-57.908
			s57.908,25.977,57.908,57.908h97.064c0-31.931,25.978-57.908,57.908-57.908s57.908,25.977,57.908,57.908h12.762
			c4.528,0,8.198-3.67,8.198-8.198v-91.829L493.826,155.222z M367.091,268.754h-25.813c-5.458,0-9.882-4.425-9.882-9.882
			c0-5.458,4.424-9.882,9.882-9.882h25.813c5.458,0,9.882,4.424,9.882,9.882C376.972,264.33,372.548,268.754,367.091,268.754z
			 M391.905,234.597h-0.001H279.475l40.468-72.263h71.963V234.597z M417.551,234.597v-72.263h53.175l15.898,72.263H417.551z"/>
	</g>
</g>
<g>
</g>
<g>
</g>
<g>
</g>
<g>
</g>
<g>
</g>
<g>
</g>
<g>
</g>
<g>
</g>
<g>
</g>
<g>
</g>
<g>
</g>
<g>
</g>
<g>
</g>
<g>
</g>
<g>
</g>
</svg>
