<?xml version="1.0" encoding="iso-8859-1"?>
<!-- Generator: Adobe Illustrator 19.0.0, SVG Export Plug-In . SVG Version: 6.00 Build 0)  -->
<svg version="1.1" id="Layer_1" xmlns="http://www.w3.org/2000/svg" xmlns:xlink="http://www.w3.org/1999/xlink" x="0px" y="0px"
	 viewBox="0 0 512 512" style="enable-background:new 0 0 512 512;" xml:space="preserve">
<g>
	<g>
		<path d="M441.605,322.478h67.129v-88.722h-99.217c5.93,7.16,11.279,16.342,13.654,25.422c5.052,16.318-3.789,33.984-19.755,39.418
			c-16.31,5.553-34.122-3.366-39.447-20.343c-4.003-12.767,4.186-17.889-16.614-25.367c-8.035-2.896-13.359-10.219-14.254-18.304
			c-0.397-3.589,0.049-7.19,1.5-10.708c-1.442,0.354-15.631,3.081-18.186,3.151l-2.605,14.544
			c-17.181,10.001-28.74,28.604-28.74,49.918v118.394c0,11.933,9.674,21.608,21.608,21.608h13.138v38.494
			c0,23.205,18.812,42.016,42.017,42.016c23.205,0,42.017-18.811,42.017-42.016v-38.494h36.338v18.186
			c0,6.106,4.95,11.057,11.057,11.057h57.489v-59.245v-0.024h-45.434c-7.407,0-13.412-6.005-13.412-13.412
			c0-7.407,6.005-13.412,13.412-13.412h45.434v-25.337h-67.129c-7.407,0-13.412-6.005-13.412-13.412
			S434.198,322.478,441.605,322.478z M360.742,372.26c-18.89,0-37.644-15.918-37.644-38.086c0-20.874,16.921-37.795,37.795-37.795
			s37.795,16.921,37.795,37.795C398.689,355.857,380.542,372.26,360.742,372.26z"/>
	</g>
</g>
<g>
	<g>
		<path d="M401.709,75.418h-43.276c-8.608,0-15.981,6.169-17.498,14.643l-2.121,11.845c10.747,2.41,19.552,10.447,22.902,21.524
			c2.721,8.997,1.822,25.856-6.959,42.888c1.753-1.009,3.832-2.036,9.778-6.333l8.775-49.016h25.589
			C401.91,99.126,402.762,86.738,401.709,75.418z"/>
	</g>
</g>
<g>
	<g>
		<path d="M461.795,75.417c-0.219,14.045-1.741,24.549-4.197,35.552h9.754c0,3.313,0.02,11.627,0.02,14.501
			c0,5.848,4.741,10.588,10.588,10.588h30.774v-31.707V75.417H461.795z"/>
	</g>
</g>
<g>
	<g>
		<path d="M97.928,374.304l-1.083-9.101c-16.438,1.687-33.826,0.343-49.785-4.38l1.562,13.124L7.263,478.54
			c-4.967,12.563,1.189,26.772,13.752,31.74c12.564,4.968,26.772-1.192,31.739-13.752l43.631-110.34
			C97.877,382.416,98.407,378.332,97.928,374.304z"/>
	</g>
</g>
<g>
	<g>
		<path d="M163.839,362.892l-3.008-24.004c-13.946,11.17-29.474,18.95-46.39,23.216l0.362,2.89l-23.917,117.67
			c-2.69,13.237,5.859,26.15,19.098,28.84c13.231,2.69,26.149-5.855,28.84-19.098l24.715-121.601
			C164.068,368.202,164.169,365.529,163.839,362.892z"/>
	</g>
</g>
<g>
	<g>
		<path d="M290.474,210.855c-1.936-6.565-8.831-10.313-15.394-8.378l-44.189,13.042c4.172,7.086,6.327,15.446,5.793,24.133
			l5.928-1.75l-3.504,13.483c-1.722,6.624,2.252,13.39,8.877,15.111c6.618,1.722,13.388-2.248,15.111-8.877l7.252-27.903
			l11.745-3.466C288.66,224.311,292.412,217.419,290.474,210.855z"/>
	</g>
</g>
<g>
	<g>
		<ellipse cx="95.367" cy="45.298" rx="43.476" ry="45.298"/>
	</g>
</g>
<g>
	<g>
		<path d="M157.366,273.038c-1.824,3.161-3.851,6.38-6.099,9.572c-18.475,26.245-42.838,38.838-72.431,37.435
			c-27.983-1.33-44.194-14.842-53.574-30.696c-0.784-1.324-2.069-2.276-3.564-2.64c-1.495-0.363-3.076-0.11-4.38,0.707
			l-11.375,7.126c-2.617,1.64-3.453,5.057-1.892,7.72c14.745,25.163,39.158,40.903,73.608,42.541
			c38.542,1.825,71.096-15.153,94.366-48.628c4.444-6.394,8.136-12.809,11.177-18.824L157.366,273.038z"/>
	</g>
</g>
<g>
	<g>
		<path d="M199.103,215.451l-71.648-11.958l-32.358-73.966l43.337,55.512l12.257,2.045v-52.325c0-16.9-13.148-30.6-29.368-30.6
			H68.948c-16.22,0-29.125,13.7-29.125,30.6v136.868c7.376,18.046,19.714,26.523,40.005,27.488
			c23.486,1.117,41.888-10.444,55.241-29.795c-31.172-5.202-29.379-4.872-31.113-5.273c-17.7-4.091-27.947-19.037-29.664-27.994
			l-16.6-86.631l36.252,82.866c2.36,5.395,6.704,9.522,11.989,11.502c2.635,0.987-3.625-0.222,86.534,14.825
			c11.442,1.912,22.199-6.212,24.03-18.124C218.318,228.643,210.607,217.37,199.103,215.451z"/>
	</g>
</g>
<g>
	<g>
		<path d="M441.223,50.864c-1.773-6.763-8.472-10.751-14.965-8.903c-6.261,1.782-10.384,8.537-8.519,15.688
			c3.696,14.091,4.321,35.226,0.484,52.932c-3.168,12.893-4.844,18.841-12.967,32.82c-4.424,7.897-14.623,19.19-17.38,21.511
			c-21.242,19.991-45.965,29.38-72.711,36.873c-1.899,0.53-2.745,2.228-2.472,3.83c0.306,1.795,1.95,3.007,3.691,2.686
			c28.646-5.304,55.258-12.71,80.253-32.438c3.247-2.312,15.694-13.751,21.883-22.771c6.516-9.224,12.119-18.105,18.453-37.192
			C445.141,89.205,443.634,60.101,441.223,50.864z"/>
	</g>
</g>
<g>
	<g>
		<path d="M343.816,128.846c-2.05-6.778-8.985-10.542-15.492-8.406c-6.173,2.026-10.311,8.917-7.92,16.621
			c0.591,0.683,1.157,4.492,1.225,5.419c0.88,6.014-0.661,11.972-2.985,17.076c-4.1,8.439-9.53,12.53-15.579,17.058
			c-1.028,0.775-1.525,2.169-1.141,3.507c0.485,1.69,2.193,2.65,3.817,2.144c6.5-2.03,12.591-3.583,22.068-11.371
			c1.112-1.092,5.799-5.536,8.179-9.554C343.602,149.269,345.582,134.687,343.816,128.846z"/>
	</g>
</g>
<g>
	<g>
		<path d="M405.18,264.298c-3.344-12.827-12.909-23.623-23.513-29.534c-11.156-5.818-19.65-5.692-26.969-5.687
			c-1.269,0.003-2.46,0.831-2.898,2.152c-0.554,1.669,0.296,3.488,1.896,4.065l0.344,0.123c6.348,2.288,12.825,4.475,19.28,11.546
			c5.406,6.238,8.206,13.156,8.003,20.75c-0.016,0.091-0.057,0.152-0.11,0.268c-0.212,9.736,8.394,15.562,16.177,12.912
			C403.315,278.876,407.593,272.21,405.18,264.298z"/>
	</g>
</g>
<g>
</g>
<g>
</g>
<g>
</g>
<g>
</g>
<g>
</g>
<g>
</g>
<g>
</g>
<g>
</g>
<g>
</g>
<g>
</g>
<g>
</g>
<g>
</g>
<g>
</g>
<g>
</g>
<g>
</g>
</svg>
